<?xml version="1.0"?>
<svg version="1.1" xmlns="http://www.w3.org/2000/svg" xmlns:xlink="http://www.w3.org/1999/xlink" width="480" height="480">
    <desc iVinci="yes" version="4.6" gridStep="20" showGrid="no" snapToGrid="no" codePlatform="0"/>
    <g id="Layer1" name="Layer 1" opacity="1">
        <g id="Shape1">
            <desc shapeID="1" type="0" basicInfo-basicType="4" basicInfo-roundedRectRadius="12" basicInfo-polygonSides="6" basicInfo-starPoints="5" bounding="rect(-186,-186,372,372)" text="" font-familyName="Helvetica" font-pixelSize="20" font-bold="0" font-underline="0" font-alignment="1" strokeStyle="0" markerStart="0" markerEnd="0" shadowEnabled="0" shadowOffsetX="0" shadowOffsetY="2" shadowBlur="4" shadowOpacity="160" blurEnabled="0" blurRadius="4" transform="matrix(1.26559,0,0,1.27076,240,239.75)" pers-center="0,0" pers-size="0,0" pers-start="0,0" pers-end="0,0" locked="0" mesh="" flag=""/>
            <path id="shapePath1" d="M4.60045,239.75 C4.60053,109.211 109.992,3.38783 240,3.38783 C370.008,3.38783 475.4,109.211 475.4,239.75 C475.4,370.289 370.008,476.112 240,476.112 C109.992,476.112 4.60045,370.289 4.60045,239.75 Z" style="stroke:#ffffff;stroke-opacity:1;stroke-width:6;stroke-linejoin:miter;stroke-miterlimit:2;stroke-linecap:round;fill:none;"/>
        </g>
        <g id="Shape2">
            <desc shapeID="2" type="0" basicInfo-basicType="0" basicInfo-roundedRectRadius="12" basicInfo-polygonSides="6" basicInfo-starPoints="5" bounding="rect(-40.065,-33.7165,80.13,67.433)" text="" font-familyName="" font-pixelSize="20" font-bold="0" font-underline="0" font-alignment="1" strokeStyle="0" markerStart="0" markerEnd="0" shadowEnabled="0" shadowOffsetX="0" shadowOffsetY="2" shadowBlur="4" shadowOpacity="160" blurEnabled="0" blurRadius="4" transform="matrix(3.34143,0,0,3.34143,240,243.944)" pers-center="0,0" pers-size="0,0" pers-start="0,0" pers-end="0,0" locked="0" mesh="" flag=""/>
            <path id="shapePath2" d="M267.701,169.956 C280.081,177.718 288.762,190.854 290.342,206.101 C295.391,208.46 300.995,209.816 306.936,209.816 C328.625,209.816 346.204,192.237 346.204,170.551 C346.204,148.862 328.625,131.282 306.936,131.282 C285.454,131.289 268.028,148.554 267.701,169.956 M241.975,250.358 C263.664,250.358 281.243,232.775 281.243,211.089 C281.243,189.403 263.661,171.824 241.975,171.824 C220.289,171.824 202.7,189.407 202.7,211.093 C202.7,232.779 220.289,250.358 241.975,250.358 M258.632,253.034 L225.311,253.034 C197.587,253.034 175.033,275.592 175.033,303.316 L175.033,344.065 L175.136,344.703 L177.943,345.582 C204.4,353.849 227.386,356.605 246.305,356.605 C283.258,356.605 304.677,346.07 305.997,345.398 L308.62,344.072 L308.9,344.072 L308.9,303.316 C308.91,275.592 286.356,253.034 258.632,253.034 M323.599,212.496 L290.536,212.496 C290.178,225.725 284.531,237.637 275.6,246.204 C300.243,253.532 318.273,276.384 318.273,303.376 L318.273,315.933 C350.919,314.737 369.731,305.485 370.971,304.863 L373.594,303.533 L373.875,303.533 L373.875,262.771 C373.875,235.051 351.32,212.496 323.599,212.496 M173.071,209.823 C180.753,209.823 187.9,207.581 193.955,203.762 C195.88,191.208 202.609,180.238 212.223,172.766 C212.263,172.031 212.333,171.303 212.333,170.561 C212.333,148.872 194.75,131.292 173.071,131.292 C151.379,131.292 133.803,148.872 133.803,170.561 C133.803,192.24 151.379,209.823 173.071,209.823 M208.337,246.204 C199.448,237.68 193.821,225.832 193.41,212.683 C192.184,212.593 190.971,212.496 189.722,212.496 L156.404,212.496 C128.68,212.496 106.126,235.051 106.126,262.771 L106.126,303.527 L106.229,304.155 L109.036,305.04 C130.261,311.666 149.203,314.72 165.657,315.683 L165.657,303.376 C165.663,276.384 183.687,253.539 208.337,246.204 Z" style="stroke:none;fill-rule:nonzero;fill:#ffffff;fill-opacity:1;"/>
        </g>
    </g>
    <g id="Layer2" name="Layer 2" opacity="1">
        <g id="Shape3">
            <desc shapeID="3" type="0" basicInfo-basicType="4" basicInfo-roundedRectRadius="12" basicInfo-polygonSides="6" basicInfo-starPoints="5" bounding="rect(-186,-186,372,372)" text="" font-familyName="Helvetica" font-pixelSize="20" font-bold="0" font-underline="0" font-alignment="1" strokeStyle="0" markerStart="0" markerEnd="0" shadowEnabled="0" shadowOffsetX="0" shadowOffsetY="2" shadowBlur="4" shadowOpacity="160" blurEnabled="0" blurRadius="4" transform="matrix(1.28629,0,0,1.28629,240.25,239.75)" pers-center="0,0" pers-size="0,0" pers-start="0,0" pers-end="0,0" locked="0" mesh="" flag=""/>
            <path id="shapePath3" d="M0.999969,239.75 C1.00006,107.616 108.116,0.499969 240.25,0.499969 C372.384,0.499969 479.5,107.616 479.5,239.75 C479.5,371.884 372.384,479 240.25,479 C108.116,479 0.999969,371.884 0.999969,239.75 Z" style="stroke:#323232;stroke-opacity:1;stroke-width:0;stroke-linejoin:miter;stroke-miterlimit:2;stroke-linecap:round;fill-rule:evenodd;fill:#ffffff;fill-opacity:1;"/>
        </g>
    </g>
    <g id="Layer3" name="Layer 3" opacity="1">
        <g id="Shape4">
            <desc shapeID="4" type="2" basicInfo-basicType="0" basicInfo-roundedRectRadius="12" basicInfo-polygonSides="6" basicInfo-starPoints="5" bounding="rect(-191.083,-50.0948,382.166,100.19)" text="WWW" font-familyName="Exo 2.0" font-pixelSize="110" font-bold="0" font-underline="0" font-alignment="1" strokeStyle="0" markerStart="0" markerEnd="0" shadowEnabled="0" shadowOffsetX="0" shadowOffsetY="2" shadowBlur="4" shadowOpacity="160" blurEnabled="0" blurRadius="4" transform="matrix(1,0,0,1,239.991,245.458)" pers-center="0,0" pers-size="0,0" pers-start="0,0" pers-end="0,0" locked="0" mesh="" flag=""/>
            <path id="shapePath4" d="M184.47,213.339 L174.24,213.339 L162.25,272.629 C161.7,275.599 161.26,278.789 160.82,281.869 L158.07,281.869 C157.74,278.789 157.19,275.709 156.53,272.519 L144.76,216.529 C144.32,214.659 142.89,213.339 141.02,213.339 L130.46,213.339 C128.48,213.339 127.05,214.659 126.72,216.529 L114.95,272.519 C114.29,275.489 113.74,278.459 113.19,281.869 L110.66,281.869 C110.11,278.459 109.67,275.379 109.12,272.519 L97.24,213.339 L87.01,213.339 L102.41,286.379 C102.74,288.029 104.28,289.239 106.15,289.239 L117.26,289.239 C119.13,289.239 120.67,288.029 121.11,286.269 L132.88,229.179 C133.43,226.429 133.98,223.459 134.53,220.599 L136.84,220.599 C137.39,223.459 137.94,226.319 138.6,229.179 L150.48,286.269 C150.81,288.029 152.35,289.239 154.22,289.239 L165.22,289.239 C167.2,289.239 168.63,288.029 169.07,286.379 L184.47,213.339 M288.736,213.339 L278.506,213.339 L266.516,272.629 C265.966,275.599 265.526,278.789 265.086,281.869 L262.336,281.869 C262.006,278.789 261.456,275.709 260.796,272.519 L249.026,216.529 C248.586,214.659 247.156,213.339 245.286,213.339 L234.726,213.339 C232.746,213.339 231.316,214.659 230.986,216.529 L219.216,272.519 C218.556,275.489 218.006,278.459 217.456,281.869 L214.926,281.869 C214.376,278.459 213.936,275.379 213.386,272.519 L201.506,213.339 L191.276,213.339 L206.676,286.379 C207.006,288.029 208.546,289.239 210.416,289.239 L221.526,289.239 C223.396,289.239 224.936,288.029 225.376,286.269 L237.146,229.179 C237.696,226.429 238.246,223.459 238.796,220.599 L241.106,220.599 C241.656,223.459 242.206,226.319 242.866,229.179 L254.746,286.269 C255.076,288.029 256.616,289.239 258.486,289.239 L269.486,289.239 C271.466,289.239 272.896,288.029 273.336,286.379 L288.736,213.339 M393.001,213.339 L382.771,213.339 L370.781,272.629 C370.231,275.599 369.791,278.789 369.351,281.869 L366.601,281.869 C366.271,278.789 365.721,275.709 365.061,272.519 L353.291,216.529 C352.851,214.659 351.421,213.339 349.551,213.339 L338.991,213.339 C337.011,213.339 335.581,214.659 335.251,216.529 L323.481,272.519 C322.821,275.489 322.271,278.459 321.721,281.869 L319.191,281.869 C318.641,278.459 318.201,275.379 317.651,272.519 L305.771,213.339 L295.541,213.339 L310.941,286.379 C311.271,288.029 312.811,289.239 314.681,289.239 L325.791,289.239 C327.661,289.239 329.201,288.029 329.641,286.269 L341.411,229.179 C341.961,226.429 342.511,223.459 343.061,220.599 L345.371,220.599 C345.921,223.459 346.471,226.319 347.131,229.179 L359.011,286.269 C359.341,288.029 360.881,289.239 362.751,289.239 L373.751,289.239 C375.731,289.239 377.161,288.029 377.601,286.379 L393.001,213.339 Z" style="stroke:none;fill-rule:nonzero;fill:#ffd300;fill-opacity:1;"/>
        </g>
    </g>
    <g id="Layer4" name="Layer 4" visibility="hidden" opacity="1">
        <g id="Shape5">
            <desc shapeID="5" type="0" basicInfo-basicType="0" basicInfo-roundedRectRadius="12" basicInfo-polygonSides="6" basicInfo-starPoints="5" bounding="rect(-40.065,-33.7165,80.13,67.433)" text="" font-familyName="" font-pixelSize="20" font-bold="0" font-underline="0" font-alignment="1" strokeStyle="0" markerStart="0" markerEnd="0" shadowEnabled="0" shadowOffsetX="0" shadowOffsetY="2" shadowBlur="4" shadowOpacity="160" blurEnabled="0" blurRadius="4" transform="matrix(3.34143,0,0,3.34143,240,240)" pers-center="0,0" pers-size="0,0" pers-start="0,0" pers-end="0,0" locked="0" mesh="" flag=""/>
            <path id="shapePath5" d="M267.701,166.012 C280.081,173.775 288.762,186.91 290.342,202.157 C295.391,204.516 300.995,205.872 306.936,205.872 C328.625,205.872 346.204,188.293 346.204,166.607 C346.204,144.918 328.625,127.339 306.936,127.339 C285.454,127.345 268.028,144.611 267.701,166.012 M241.975,246.414 C263.664,246.414 281.243,228.831 281.243,207.146 C281.243,185.46 263.661,167.88 241.975,167.88 C220.289,167.88 202.7,185.463 202.7,207.149 C202.7,228.835 220.289,246.414 241.975,246.414 M258.632,249.091 L225.311,249.091 C197.587,249.091 175.033,271.649 175.033,299.372 L175.033,340.121 L175.136,340.759 L177.943,341.638 C204.401,349.905 227.386,352.662 246.305,352.662 C283.258,352.662 304.677,342.126 305.997,341.454 L308.62,340.128 L308.901,340.128 L308.901,299.372 C308.911,271.649 286.356,249.091 258.632,249.091 M323.6,208.552 L290.536,208.552 C290.178,221.781 284.531,233.693 275.6,242.261 C300.243,249.588 318.273,272.44 318.273,299.433 L318.273,311.99 C350.919,310.793 369.731,301.541 370.971,300.92 L373.594,299.59 L373.875,299.59 L373.875,258.827 C373.875,231.107 351.32,208.552 323.6,208.552 M173.071,205.879 C180.753,205.879 187.901,203.637 193.955,199.818 C195.88,187.264 202.61,176.294 212.223,168.823 C212.263,168.088 212.333,167.359 212.333,166.617 C212.333,144.928 194.75,127.349 173.071,127.349 C151.379,127.349 133.803,144.928 133.803,166.617 C133.803,188.297 151.379,205.879 173.071,205.879 M208.337,242.261 C199.449,233.737 193.822,221.888 193.411,208.739 C192.184,208.649 190.971,208.552 189.722,208.552 L156.404,208.552 C128.68,208.552 106.126,231.107 106.126,258.827 L106.126,299.583 L106.229,300.211 L109.036,301.097 C130.261,307.723 149.203,310.777 165.657,311.739 L165.657,299.433 C165.663,272.44 183.687,249.595 208.337,242.261 Z" style="stroke:none;fill-rule:nonzero;fill:#000000;fill-opacity:1;"/>
        </g>
    </g>
</svg>
