<?xml version="1.0" encoding="iso-8859-1"?>
<!-- Generator: Adobe Illustrator 19.0.0, SVG Export Plug-In . SVG Version: 6.00 Build 0)  -->
<svg xmlns="http://www.w3.org/2000/svg" xmlns:xlink="http://www.w3.org/1999/xlink" version="1.1" id="Layer_1" x="0px" y="0px" viewBox="0 0 512.001 512.001" style="enable-background:new 0 0 512.001 512.001;" xml:space="preserve" width="512px" height="512px">
<g>
	<g>
		<path d="M204.761,133.852c-19.56-19.57-51.32-19.558-70.873-0.006c-19.582,19.57-19.578,51.327,0,70.884    c19.559,19.57,51.324,19.56,70.873,0C224.344,185.161,224.339,153.408,204.761,133.852z" fill="#FFFFFF"/>
	</g>
</g>
<g>
	<g>
		<path d="M437.098,74.787C340.522-21.8,185.51-24.693,85.068,65.522C-16.022,148.217-36.188,326.046,74.816,437.058    c49.935,49.941,115.543,74.914,181.141,74.914c69.601,0,134.973-28.736,181.141-74.914    C536.968,337.182,536.968,174.662,437.098,74.787z M98.442,413.433C-31.534,283.442,54.674,68.288,171.294,68.288    c91.448,0,137.576,111.099,72.852,175.822c-53.253,53.252-53.254,139.694,0,192.948c17.501,17.505,38.993,29.506,62.398,35.492    C234.07,489.343,154.806,469.795,98.442,413.433z M378.027,377.992v0.006c-19.553,19.553-51.314,19.566-70.873-0.006    c-19.579-19.557-19.582-51.314,0-70.884c19.553-19.553,51.314-19.566,70.873,0.006    C397.606,326.67,397.609,358.421,378.027,377.992z" fill="#FFFFFF"/>
	</g>
</g>
<g>
</g>
<g>
</g>
<g>
</g>
<g>
</g>
<g>
</g>
<g>
</g>
<g>
</g>
<g>
</g>
<g>
</g>
<g>
</g>
<g>
</g>
<g>
</g>
<g>
</g>
<g>
</g>
<g>
</g>
</svg>
